# xmcd CD database file
#
# Track frame offsets:
#	150
#	20839
#	41215
#	59710
#	81496
#	104693
#	125696
#	144818
#	167075
#	187294
#	207827
#	227419
#	247952
#
# Disc length: 3625 seconds
#
# Revision: 6
# Processed by: cddbd v1.5PL3 Copyright (c) Steve Scherf et al.
# Submitted via: CDex 1.51
#
DISCID=c30e270d
DTITLE=Porno Graffitti - Romantist Egoist
DYEAR=2000
DGENRE=Japanese Rock
TTITLE0=Jazz up
TTITLE1=Century Lovers
TTITLE2=ヒトリノ夜
TTITLE3=ライオン
TTITLE4=憂色 -Love is you-
TTITLE5=Heart Beat
TTITLE6=マシンガントーク
TTITLE7=デッサン#1
TTITLE8=アポロ (New Apollo Project Version)
TTITLE9=ラビュー・ラビュー
TTITLE10=ジレンマ (How To Play "didgeridoo" Version)
TTITLE11=リビドー
TTITLE12=ロマンチスト・エゴイスト
EXTD=\n\n\n YEAR: 2000
EXTT0=
EXTT1=
EXTT2=
EXTT3=
EXTT4=
EXTT5=
EXTT6=
EXTT7=
EXTT8=
EXTT9=
EXTT10=
EXTT11=
EXTT12=
PLAYORDER=
